<?xml version="1.0" standalone="no"?>
<!DOCTYPE svg PUBLIC "-//W3C//DTD SVG 20010904//EN"
 "http://www.w3.org/TR/2001/REC-SVG-20010904/DTD/svg10.dtd">
<svg version="1.0" xmlns="http://www.w3.org/2000/svg"
 width="2000.000000pt" height="2000.000000pt" viewBox="0 0 2000.000000 2000.000000"
 preserveAspectRatio="xMidYMid meet">
<metadata>
Created by potrace 1.11, written by Peter Selinger 2001-2013
</metadata>
<g transform="translate(0.000000,2000.000000) scale(0.100000,-0.100000)"
fill="#000000" stroke="none">
<path d="M6725 17029 c-1034 -65 -2092 -459 -3172 -1181 -197 -132 -224 -153
-218 -172 130 -445 125 -938 -16 -1425 -75 -261 -226 -571 -393 -811 -29 -42
-41 -67 -34 -71 15 -10 56 17 533 356 256 181 618 421 820 542 1677 1007 3259
1281 4803 833 321 -93 625 -215 972 -391 657 -332 1273 -788 1900 -1406 l176
-172 244 8 c965 31 1928 -107 2694 -387 620 -226 1111 -531 1496 -928 252
-260 394 -462 555 -789 232 -472 340 -940 361 -1567 19 -562 -94 -1361 -286
-2022 -11 -38 -19 -70 -17 -70 1 -1 64 -32 141 -70 163 -82 363 -212 536 -350
146 -116 432 -399 542 -536 537 -668 836 -1460 919 -2430 15 -169 18 -642 6
-883 -7 -139 -6 -167 5 -167 8 0 24 24 37 52 424 976 592 1967 470 2778 -114
754 -503 1377 -1122 1798 -71 48 -96 70 -91 82 47 121 121 403 159 615 82 448
97 968 39 1415 -127 993 -579 1902 -1314 2641 -595 599 -1328 1006 -2190 1218
-515 127 -931 174 -1525 175 -433 0 -797 -24 -1190 -79 -59 -9 -109 -14 -110
-13 -2 2 -44 65 -94 141 -434 656 -1068 1356 -1696 1872 -1222 1004 -2569
1480 -3940 1394z"/>
<path d="M180 16886 c0 -8 21 -27 48 -42 212 -124 479 -330 668 -519 319 -318
504 -629 575 -968 30 -142 30 -352 0 -494 -99 -475 -457 -935 -1072 -1379
-117 -85 -117 -85 -109 -117 5 -18 365 -1582 800 -3477 435 -1895 794 -3453
798 -3462 6 -14 23 -5 107 58 299 226 763 505 1113 670 1130 534 2149 614
2947 230 755 -362 1165 -1104 1280 -2316 47 -498 37 -1241 -25 -1864 -21 -207
-7 -200 113 62 543 1178 800 2191 774 3042 -33 1072 -470 1828 -1344 2327
-271 155 -637 297 -914 353 -259 53 -605 73 -884 51 -504 -40 -1103 -179
-1700 -394 -82 -30 -151 -54 -152 -52 -2 1 -338 975 -748 2164 l-746 2162 34
47 c117 160 345 589 437 820 179 454 249 805 237 1182 -7 201 -33 350 -92 520
-237 679 -908 1143 -1999 1380 -164 35 -146 33 -146 16z"/>
<path d="M14230 8174 c-19 -2 -78 -9 -130 -15 -613 -69 -1262 -391 -1731 -860
l-117 -117 -38 40 c-56 58 -226 205 -319 275 -310 235 -676 408 -995 472 -556
110 -1114 -8 -1669 -353 -210 -131 -494 -364 -650 -533 l-80 -87 52 -59 c208
-239 351 -469 471 -763 296 -725 372 -1719 216 -2814 -16 -113 -39 -249 -50
-304 -24 -117 -24 -116 -6 -116 27 0 247 403 373 683 370 823 577 1742 588
2612 l2 240 44 13 c205 59 479 54 689 -15 336 -110 667 -384 910 -754 34 -52
63 -95 65 -97 2 -2 97 91 212 205 518 520 1013 847 1558 1029 260 87 487 124
753 124 297 -1 518 -47 757 -160 352 -166 755 -544 988 -926 244 -401 389
-866 449 -1444 19 -185 16 -674 -6 -885 -15 -145 -48 -368 -72 -482 -5 -27 -3
-33 10 -33 18 0 45 51 164 310 646 1406 702 2609 165 3516 -200 337 -494 638
-829 849 -325 204 -765 362 -1189 426 -124 19 -496 34 -585 23z"/>
</g>
</svg>
