<svg xmlns="http://www.w3.org/2000/svg" xmlns:xlink="http://www.w3.org/1999/xlink" width="244" height="43" viewBox="0 0 244 43">
    <defs>
        <path id="a" d="M0 43h243.796V.05H0z"/>
    </defs>
    <g fill="none" fill-rule="evenodd">
        <path fill="#FFF" d="M70 34.084h-2.38V41h-1.235v-6.916H64V33h6z"/>
        <g>
            <path fill="#FFF" d="M71.49 40.282c.48 0 .839-.163 1.074-.489.235-.325.353-.79.353-1.395 0-.606-.118-1.073-.353-1.402-.235-.33-.593-.494-1.074-.494-.488 0-.85.165-1.088.494-.237.329-.355.796-.355 1.402 0 .604.118 1.07.355 1.395.237.326.6.489 1.088.489m0-4.661c.393 0 .75.065 1.069.195.319.13.59.315.815.555.225.239.399.529.52.87.123.342.183.725.183 1.151 0 .426-.06.81-.182 1.15a2.493 2.493 0 0 1-.52.874 2.28 2.28 0 0 1-.816.557c-.319.13-.676.195-1.07.195-.397 0-.755-.065-1.074-.195a2.306 2.306 0 0 1-.818-.557 2.468 2.468 0 0 1-.523-.873 3.397 3.397 0 0 1-.183-1.151c0-.426.061-.81.183-1.15.122-.342.297-.632.523-.871.227-.24.5-.425.818-.555a2.81 2.81 0 0 1 1.075-.195M82.563 35.705l-1.71 5.384h-.894c-.104 0-.178-.068-.22-.206l-1.06-3.351a5.38 5.38 0 0 1-.137-.565c-.038.19-.085.38-.14.57l-1.078 3.346c-.038.138-.12.206-.245.206h-.853l-1.71-5.384h.89c.086 0 .159.022.217.066a.304.304 0 0 1 .112.156l.889 3.135a9.213 9.213 0 0 1 .162.823 22.906 22.906 0 0 1 .23-.823l.998-3.15a.285.285 0 0 1 .107-.157c.055-.04.12-.06.196-.06h.492c.08 0 .148.02.204.06a.28.28 0 0 1 .11.156l.972 3.151a12.183 12.183 0 0 1 .22.834c.024-.133.05-.269.078-.406.028-.137.061-.28.1-.428l.904-3.135a.324.324 0 0 1 .319-.222h.847zM86.16 38.735c-.401.014-.739.047-1.014.098a2.857 2.857 0 0 0-.67.195.888.888 0 0 0-.368.282.618.618 0 0 0-.112.36c0 .126.02.234.06.324.04.09.095.164.167.222.071.058.155.1.25.126.097.027.202.04.317.04.293 0 .545-.055.756-.166.21-.111.415-.272.614-.484v-.997zm-2.98-2.28a3.04 3.04 0 0 1 2.154-.85c.306 0 .579.05.818.15.239.1.44.242.6.426.163.182.287.4.373.651.084.252.127.53.127.837v3.42h-.502a.48.48 0 0 1-.245-.05c-.056-.034-.104-.101-.141-.203l-.11-.438c-.136.123-.27.233-.403.33-.132.096-.269.178-.41.245a1.992 1.992 0 0 1-.455.15c-.162.034-.34.05-.536.05-.216 0-.417-.03-.604-.089a1.326 1.326 0 0 1-.483-.272 1.279 1.279 0 0 1-.321-.451 1.565 1.565 0 0 1-.118-.633c0-.208.055-.41.164-.608.11-.197.291-.373.544-.53.253-.156.586-.286.999-.388.413-.102.923-.16 1.529-.174v-.359c0-.387-.082-.676-.246-.866-.164-.19-.404-.285-.721-.285-.217 0-.398.028-.544.082a2.41 2.41 0 0 0-.382.177 7.312 7.312 0 0 0-.287.176.48.48 0 0 1-.267.082.317.317 0 0 1-.196-.06.502.502 0 0 1-.134-.15l-.203-.37zM89.626 36.703c.168-.341.37-.61.607-.805.236-.195.52-.293.852-.293.115 0 .223.013.324.04a.909.909 0 0 1 .271.118l-.078.855c-.013.06-.036.102-.065.125a.186.186 0 0 1-.118.034c-.052 0-.127-.01-.225-.03-.098-.019-.2-.028-.308-.028-.157 0-.296.023-.415.068a.99.99 0 0 0-.324.201c-.097.088-.181.195-.255.322-.073.127-.14.271-.204.433v3.346h-1.124v-5.384h.654c.118 0 .2.022.246.066.045.044.077.12.094.23l.068.702zM96.182 36.18c0 .081-.014.16-.04.238a.54.54 0 0 1-.112.195l-2.703 3.595h2.766v.881h-4.067v-.475a.76.76 0 0 1 .146-.401l2.724-3.626h-2.714v-.882h4v.475zM101.922 35.705l-2.938 6.915a.573.573 0 0 1-.138.19c-.054.046-.137.069-.25.069h-.83l.983-2.154-2.175-5.02h.978a.32.32 0 0 1 .216.066.42.42 0 0 1 .113.156l1.27 3.056a7.155 7.155 0 0 1 .162.528l.084-.269c.028-.088.06-.176.094-.264l1.218-3.051a.349.349 0 0 1 .314-.222h.9zM105.734 36.682a.278.278 0 0 1-.095.105.248.248 0 0 1-.13.032.414.414 0 0 1-.194-.055 7.13 7.13 0 0 0-.246-.124 2.052 2.052 0 0 0-.332-.124 1.604 1.604 0 0 0-.447-.056c-.14 0-.265.017-.378.05a.857.857 0 0 0-.288.143.646.646 0 0 0-.18.216.583.583 0 0 0-.063.267c0 .126.039.232.115.316a.999.999 0 0 0 .303.22c.126.06.269.116.429.166.16.05.324.102.491.158.167.056.331.121.492.195.16.074.303.165.428.273.126.106.227.237.304.39.076.153.114.338.114.557 0 .253-.045.487-.135.702a1.587 1.587 0 0 1-.397.56 1.836 1.836 0 0 1-.652.369c-.26.087-.557.132-.89.132-.186 0-.364-.017-.537-.05a3.066 3.066 0 0 1-.491-.138 2.598 2.598 0 0 1-.434-.209 2.299 2.299 0 0 1-.359-.263l.263-.433a.36.36 0 0 1 .117-.124.325.325 0 0 1 .175-.045.39.39 0 0 1 .217.071c.071.048.155.1.25.156a1.559 1.559 0 0 0 .855.227c.168 0 .312-.02.435-.06a.867.867 0 0 0 .303-.167.679.679 0 0 0 .236-.528.498.498 0 0 0-.116-.338.972.972 0 0 0-.306-.226 2.83 2.83 0 0 0-.434-.17c-.161-.049-.326-.101-.494-.158a4.885 4.885 0 0 1-.494-.195 1.694 1.694 0 0 1-.434-.282 1.289 1.289 0 0 1-.306-.417 1.415 1.415 0 0 1-.115-.6 1.49 1.49 0 0 1 .505-1.124c.165-.148.37-.265.611-.35.243-.087.523-.13.84-.13.358 0 .685.058.977.174.293.116.539.275.737.475l-.25.412zM108.823 41.174c-.443 0-.783-.126-1.022-.377-.239-.252-.358-.607-.358-1.065v-3.135h-.586a.236.236 0 0 1-.162-.06c-.045-.04-.068-.101-.068-.182v-.46l.863-.126.246-1.557a.305.305 0 0 1 .088-.146.247.247 0 0 1 .168-.055h.575v1.768h1.48v.818h-1.48v3.057c0 .193.047.34.141.443.094.102.22.153.376.153a.656.656 0 0 0 .225-.034 1.021 1.021 0 0 0 .28-.148.17.17 0 0 1 .096-.035c.063 0 .114.036.153.106l.334.554c-.174.155-.38.274-.617.356-.237.083-.48.125-.732.125M118.427 35.705l-1.71 5.384h-.894c-.104 0-.177-.068-.219-.206l-1.061-3.351a5.384 5.384 0 0 1-.136-.565c-.038.19-.086.38-.142.57l-1.076 3.346c-.039.138-.121.206-.246.206h-.852l-1.71-5.384h.89c.086 0 .158.022.216.066a.306.306 0 0 1 .113.156l.888 3.135a9.801 9.801 0 0 1 .162.823 45.014 45.014 0 0 1 .23-.823l.999-3.15a.28.28 0 0 1 .107-.157.315.315 0 0 1 .196-.06h.491c.08 0 .148.02.204.06.056.041.092.092.11.156l.972 3.151a15.93 15.93 0 0 1 .22.834c.024-.133.05-.269.079-.406.027-.137.06-.28.099-.428l.904-3.135a.324.324 0 0 1 .32-.222h.846zM121.464 40.282c.482 0 .84-.163 1.075-.489.235-.325.353-.79.353-1.395 0-.606-.118-1.073-.353-1.402-.235-.33-.593-.494-1.075-.494-.487 0-.85.165-1.086.494-.238.329-.357.796-.357 1.402 0 .604.12 1.07.357 1.395.236.326.599.489 1.086.489m0-4.661c.394 0 .75.065 1.07.195.319.13.59.315.815.555.225.239.398.529.52.87.123.342.183.725.183 1.151 0 .426-.06.81-.182 1.15a2.493 2.493 0 0 1-.52.874 2.28 2.28 0 0 1-.816.557 2.81 2.81 0 0 1-1.07.195c-.397 0-.754-.065-1.074-.195a2.3 2.3 0 0 1-.818-.557 2.462 2.462 0 0 1-.522-.873 3.397 3.397 0 0 1-.184-1.151c0-.426.062-.81.184-1.15.12-.342.296-.632.522-.871.226-.24.5-.425.818-.555.32-.13.677-.195 1.074-.195M129.17 34.486v2.434h2.944v.997h-2.943v3.172h-1.23v-7.6h4.696v.997zM137.766 35.705v5.384h-.68c-.15 0-.246-.072-.287-.216l-.084-.502c-.112.12-.23.23-.353.328a2.266 2.266 0 0 1-.395.253 2.067 2.067 0 0 1-.956.221c-.293 0-.551-.049-.774-.147a1.538 1.538 0 0 1-.562-.417 1.792 1.792 0 0 1-.343-.647 2.837 2.837 0 0 1-.115-.831v-3.426h1.124v3.426c0 .363.083.644.249.844.165.201.417.301.755.301.247 0 .478-.057.693-.171a2.35 2.35 0 0 0 .604-.473v-3.927h1.124zM140.186 36.418c.115-.12.234-.228.359-.325.123-.097.255-.18.394-.25.14-.07.287-.125.445-.164a2.12 2.12 0 0 1 .512-.058c.293 0 .55.05.77.148.223.098.408.237.56.417.152.179.266.395.343.646.076.252.115.53.115.832v3.425h-1.119v-3.425c0-.363-.083-.644-.248-.845-.166-.2-.418-.301-.755-.301-.252 0-.484.058-.699.174a2.389 2.389 0 0 0-.603.475v3.922h-1.125v-5.384h.68c.154 0 .25.072.293.217l.078.496zM148.404 37.03a1.324 1.324 0 0 0-.517-.427 1.524 1.524 0 0 0-.611-.122c-.44 0-.783.163-1.03.488-.249.326-.372.807-.372 1.444 0 .331.028.613.084.847.056.234.136.425.24.573a.928.928 0 0 0 .382.322c.15.067.319.1.507.1.286 0 .532-.062.74-.187.207-.125.4-.302.577-.53V37.03zm1.125-3.753v7.812h-.68c-.15 0-.246-.072-.287-.216l-.1-.586a2.822 2.822 0 0 1-.76.638 1.964 1.964 0 0 1-.992.244c-.299 0-.57-.062-.815-.182a1.76 1.76 0 0 1-.628-.531 2.583 2.583 0 0 1-.404-.863 4.392 4.392 0 0 1-.144-1.18c0-.401.053-.772.16-1.114.105-.341.258-.637.457-.889.198-.252.44-.448.724-.592a2.1 2.1 0 0 1 .954-.213c.314 0 .58.05.8.15.22.1.417.24.59.42v-2.898h1.125zM155.395 35.705v5.384h-.68c-.15 0-.246-.072-.287-.216l-.084-.502c-.112.12-.23.23-.353.328a2.266 2.266 0 0 1-.395.253 2.067 2.067 0 0 1-.956.221c-.293 0-.551-.049-.774-.147a1.538 1.538 0 0 1-.562-.417 1.792 1.792 0 0 1-.343-.647 2.837 2.837 0 0 1-.115-.831v-3.426h1.124v3.426c0 .363.083.644.249.844.165.201.417.301.755.301.247 0 .478-.057.693-.171a2.35 2.35 0 0 0 .604-.473v-3.927h1.124zM159.948 36.682a.283.283 0 0 1-.093.105.252.252 0 0 1-.131.032.414.414 0 0 1-.194-.055 7.813 7.813 0 0 0-.245-.124 2.08 2.08 0 0 0-.332-.124 1.612 1.612 0 0 0-.447-.056c-.14 0-.266.017-.38.05a.857.857 0 0 0-.288.143.646.646 0 0 0-.18.216.583.583 0 0 0-.063.267c0 .126.04.232.115.316a.999.999 0 0 0 .304.22c.125.06.268.116.429.166.16.05.324.102.49.158.168.056.332.121.492.195.16.074.303.165.43.273.124.106.226.237.302.39.077.153.115.338.115.557 0 .253-.045.487-.135.702a1.587 1.587 0 0 1-.398.56 1.836 1.836 0 0 1-.651.369c-.26.087-.557.132-.89.132-.186 0-.365-.017-.537-.05a3.075 3.075 0 0 1-.492-.138 2.598 2.598 0 0 1-.434-.209 2.29 2.29 0 0 1-.357-.263l.261-.433a.368.368 0 0 1 .117-.124.325.325 0 0 1 .175-.045c.074 0 .146.024.217.071.072.048.155.1.251.156a1.559 1.559 0 0 0 .855.227c.168 0 .312-.02.434-.06a.867.867 0 0 0 .304-.167.679.679 0 0 0 .235-.528.498.498 0 0 0-.115-.338.972.972 0 0 0-.306-.226 2.767 2.767 0 0 0-.434-.17c-.162-.049-.327-.101-.494-.158a4.899 4.899 0 0 1-.494-.195 1.708 1.708 0 0 1-.434-.282 1.275 1.275 0 0 1-.306-.417 1.402 1.402 0 0 1-.115-.6 1.493 1.493 0 0 1 .505-1.124c.165-.148.369-.265.611-.35.242-.087.522-.13.84-.13.358 0 .684.058.977.174.293.116.539.275.737.475l-.25.412zM165.087 36.18c0 .081-.013.16-.04.238a.527.527 0 0 1-.111.195l-2.704 3.595h2.766v.881h-4.067v-.475a.76.76 0 0 1 .146-.401l2.725-3.626h-2.715v-.882h4v.475zM170.828 35.705l-2.939 6.915a.557.557 0 0 1-.138.19c-.054.046-.137.069-.249.069h-.831l.983-2.154-2.175-5.02h.978a.32.32 0 0 1 .217.066.41.41 0 0 1 .112.156l1.271 3.056a7.154 7.154 0 0 1 .162.528l.084-.269c.027-.088.059-.176.094-.264l1.218-3.051a.349.349 0 0 1 .313-.222h.9z"/>
            <mask id="b" fill="#fff">
                <use xlink:href="#a"/>
            </mask>
            <path fill="#FFF" d="M174.11 41.09h1.23v-7.602h-1.23zM177.89 36.418c.116-.12.236-.228.359-.325.124-.097.255-.18.395-.25s.288-.125.444-.164c.157-.04.328-.058.512-.058.293 0 .55.05.771.148.222.098.409.237.56.417.152.179.266.395.342.646.077.252.115.53.115.832v3.425h-1.118v-3.425c0-.363-.083-.644-.248-.845-.166-.2-.418-.301-.756-.301-.251 0-.484.058-.698.174a2.4 2.4 0 0 0-.603.475v3.922h-1.125v-5.384h.68c.153 0 .25.072.293.217l.078.496zM190.16 35.705l-1.709 5.384h-.894c-.104 0-.177-.068-.22-.206l-1.06-3.351a5.384 5.384 0 0 1-.136-.565c-.038.19-.086.38-.142.57l-1.076 3.346c-.039.138-.121.206-.246.206h-.852l-1.71-5.384h.889c.087 0 .16.022.217.066a.306.306 0 0 1 .113.156l.888 3.135a9.801 9.801 0 0 1 .162.823c.035-.133.071-.268.11-.403l.12-.42.999-3.15a.28.28 0 0 1 .107-.157.315.315 0 0 1 .196-.06h.491c.08 0 .149.02.204.06a.28.28 0 0 1 .11.156l.972 3.151a15.933 15.933 0 0 1 .22.834c.024-.133.05-.269.079-.406.027-.137.06-.28.099-.428l.904-3.135a.324.324 0 0 1 .32-.222h.846zM194.39 37.79c0-.19-.026-.367-.08-.53a1.255 1.255 0 0 0-.238-.428 1.089 1.089 0 0 0-.39-.285 1.32 1.32 0 0 0-.535-.103c-.408 0-.729.118-.963.354-.233.236-.381.566-.443.992h2.65zm-2.681.697c.014.306.061.57.141.794.08.224.188.41.321.557.135.148.295.258.482.33.186.072.394.109.624.109.22 0 .41-.026.57-.077.16-.051.3-.107.419-.17.118-.06.219-.117.303-.168a.448.448 0 0 1 .23-.076c.09 0 .16.035.21.105l.318.417a2.05 2.05 0 0 1-.45.401 2.65 2.65 0 0 1-.533.267 2.968 2.968 0 0 1-.58.147c-.199.03-.393.045-.58.045-.37 0-.713-.062-1.028-.187a2.284 2.284 0 0 1-.821-.552 2.55 2.55 0 0 1-.544-.902 3.619 3.619 0 0 1-.196-1.24c0-.373.059-.722.175-1.046a2.5 2.5 0 0 1 .503-.844c.217-.24.482-.428.794-.568a2.573 2.573 0 0 1 1.059-.208c.327 0 .63.053.91.16.278.108.519.266.721.473.202.208.36.462.473.763.113.3.17.643.17 1.026 0 .176-.02.294-.058.355-.038.059-.108.089-.209.089h-3.424zM199.63 36.682a.277.277 0 0 1-.095.105.252.252 0 0 1-.13.032.42.42 0 0 1-.194-.055 7.812 7.812 0 0 0-.246-.124 2.052 2.052 0 0 0-.332-.124 1.608 1.608 0 0 0-.447-.056c-.14 0-.266.017-.378.05a.857.857 0 0 0-.288.143.637.637 0 0 0-.18.216.583.583 0 0 0-.063.267c0 .126.038.232.115.316a.99.99 0 0 0 .303.22c.125.06.268.116.428.166.161.05.324.102.492.158.167.056.33.121.492.195.16.074.303.165.428.273.126.106.227.237.303.39.077.153.115.338.115.557 0 .253-.045.487-.136.702-.09.214-.223.4-.397.56a1.826 1.826 0 0 1-.65.369c-.26.087-.558.132-.892.132-.185 0-.363-.017-.536-.05a3.042 3.042 0 0 1-.491-.138 2.54 2.54 0 0 1-.793-.472l.262-.433a.37.37 0 0 1 .118-.124.32.32 0 0 1 .175-.045.39.39 0 0 1 .217.071c.07.048.154.1.25.156a1.553 1.553 0 0 0 .854.227c.169 0 .313-.02.435-.06a.878.878 0 0 0 .304-.167c.08-.07.139-.15.177-.24a.728.728 0 0 0 .058-.288.494.494 0 0 0-.116-.338.968.968 0 0 0-.305-.226 2.83 2.83 0 0 0-.434-.17c-.162-.049-.327-.101-.494-.158a4.885 4.885 0 0 1-.494-.195 1.699 1.699 0 0 1-.434-.282 1.298 1.298 0 0 1-.306-.417 1.402 1.402 0 0 1-.115-.6 1.49 1.49 0 0 1 .505-1.124c.165-.148.369-.265.611-.35.242-.087.522-.13.84-.13.359 0 .684.058.977.174.293.116.538.275.737.475l-.25.412zM202.719 41.174c-.443 0-.783-.126-1.022-.377-.24-.252-.358-.607-.358-1.065v-3.135h-.586a.237.237 0 0 1-.162-.06c-.045-.04-.068-.101-.068-.182v-.46l.862-.126.246-1.557a.303.303 0 0 1 .09-.146.245.245 0 0 1 .166-.055h.576v1.768h1.48v.818h-1.48v3.057c0 .193.047.34.14.443.094.102.22.153.377.153a.661.661 0 0 0 .225-.034 1.01 1.01 0 0 0 .162-.074c.045-.027.085-.051.117-.074a.173.173 0 0 1 .098-.035c.062 0 .112.036.151.106l.335.554c-.175.155-.38.274-.617.356a2.207 2.207 0 0 1-.732.125M209.562 35.705l-2.938 6.915a.573.573 0 0 1-.138.19c-.054.046-.137.069-.249.069h-.83l.982-2.154-2.175-5.02h.978a.32.32 0 0 1 .216.066.42.42 0 0 1 .113.156l1.27 3.056a7.156 7.156 0 0 1 .163.528c.027-.092.055-.18.083-.269.028-.088.06-.176.094-.264l1.218-3.051a.349.349 0 0 1 .314-.222h.9zM213.902 36.76a.597.597 0 0 1-.1.107.217.217 0 0 1-.136.036.335.335 0 0 1-.185-.063 5.592 5.592 0 0 0-.23-.14 1.494 1.494 0 0 0-.792-.203c-.244 0-.458.044-.64.132a1.252 1.252 0 0 0-.461.377 1.68 1.68 0 0 0-.277.597 3.12 3.12 0 0 0-.091.79c0 .302.033.57.1.806.065.236.16.435.283.597.124.162.274.285.45.37.177.084.375.126.594.126.216 0 .392-.026.528-.079.136-.053.25-.111.34-.174.09-.064.168-.122.233-.174a.317.317 0 0 1 .206-.08c.09 0 .16.036.209.106l.319.417a2.063 2.063 0 0 1-.429.401c-.157.11-.322.198-.496.267a2.571 2.571 0 0 1-.544.147c-.188.03-.379.046-.57.046-.33 0-.64-.063-.928-.188a2.16 2.16 0 0 1-.753-.544 2.584 2.584 0 0 1-.507-.87 3.449 3.449 0 0 1-.185-1.175c0-.398.055-.766.167-1.106.111-.34.274-.632.489-.879a2.22 2.22 0 0 1 .797-.578 2.713 2.713 0 0 1 1.097-.208c.388 0 .728.063 1.023.19.295.126.557.306.787.538l-.298.412zM219.883 35.705l-2.94 6.915a.557.557 0 0 1-.137.19c-.054.046-.137.069-.249.069h-.831l.983-2.154-2.175-5.02h.978a.32.32 0 0 1 .217.066.41.41 0 0 1 .112.156l1.27 3.056a7.156 7.156 0 0 1 .162.528l.084-.269c.028-.088.06-.176.095-.264l1.218-3.051a.349.349 0 0 1 .313-.222h.9zM221.963 34.08a.754.754 0 0 1-.224.53.81.81 0 0 1-.24.164.709.709 0 0 1-.578 0 .798.798 0 0 1-.236-.164.739.739 0 0 1-.217-.53.76.76 0 0 1 .453-.7.709.709 0 0 1 .578 0 .802.802 0 0 1 .404.404c.04.092.06.19.06.296zm-.183 1.625v5.664c0 .225-.03.437-.088.636-.06.199-.154.372-.283.52a1.317 1.317 0 0 1-.5.348c-.203.085-.45.127-.739.127a1.902 1.902 0 0 1-.627-.1l.042-.618c.01-.07.039-.11.086-.122.047-.01.137-.015.27-.015.264 0 .45-.059.556-.177.106-.118.16-.318.16-.599v-5.664h1.123zM224.248 36.418c.115-.12.234-.228.358-.325.124-.097.255-.18.395-.25s.287-.125.444-.164a2.12 2.12 0 0 1 .512-.058c.293 0 .55.05.771.148.222.098.408.237.56.417.151.179.266.395.342.646.076.252.115.53.115.832v3.425h-1.118v-3.425c0-.363-.083-.644-.249-.845-.165-.2-.417-.301-.755-.301-.251 0-.484.058-.698.174a2.389 2.389 0 0 0-.604.475v3.922h-1.124v-5.384h.68c.153 0 .25.072.292.217l.079.496zM233.659 35.705l-2.94 6.915a.557.557 0 0 1-.137.19c-.054.046-.137.069-.249.069h-.831l.983-2.154-2.175-5.02h.978a.32.32 0 0 1 .217.066.41.41 0 0 1 .112.156l1.27 3.056a7.152 7.152 0 0 1 .162.528l.084-.269c.028-.088.06-.176.095-.264l1.218-3.051a.349.349 0 0 1 .313-.222h.9zM237.997 36.76a.596.596 0 0 1-.098.107.218.218 0 0 1-.136.036.337.337 0 0 1-.186-.063 5.101 5.101 0 0 0-.23-.14 1.503 1.503 0 0 0-.792-.203c-.245 0-.457.044-.641.132a1.25 1.25 0 0 0-.46.377 1.694 1.694 0 0 0-.277.597c-.06.234-.09.497-.09.79 0 .302.032.57.098.806.066.236.161.435.285.597.124.162.274.285.45.37.176.084.373.126.593.126.215 0 .392-.026.528-.079.136-.053.25-.111.34-.174.09-.064.168-.122.232-.174a.32.32 0 0 1 .207-.08c.09 0 .16.036.21.106l.318.417a2.086 2.086 0 0 1-.429.401c-.156.11-.322.198-.496.267a2.591 2.591 0 0 1-.544.147 3.59 3.59 0 0 1-.57.046c-.331 0-.64-.063-.928-.188a2.171 2.171 0 0 1-.753-.544 2.583 2.583 0 0 1-.507-.87 3.448 3.448 0 0 1-.186-1.175c0-.398.057-.766.168-1.106a2.52 2.52 0 0 1 .488-.879 2.23 2.23 0 0 1 .798-.578 2.71 2.71 0 0 1 1.098-.208c.387 0 .727.063 1.022.19.294.126.557.306.787.538l-.299.412zM240.372 36.344c.219-.218.459-.393.72-.526.262-.131.567-.197.915-.197.294 0 .55.05.772.148.221.098.408.237.56.416a1.8 1.8 0 0 1 .342.647c.076.252.115.529.115.831v3.426h-1.12v-3.426c0-.362-.082-.643-.247-.844-.166-.2-.418-.3-.756-.3-.25 0-.483.057-.698.173a2.41 2.41 0 0 0-.603.476v3.921h-1.124v-7.812h1.124v3.067zM53.623.05v33.227h1.137L54.784.062zM39.902 22.814s5.709 2.194 5.017 10.427c0 0 .07.003.071 0 .24-.529 3.575-7.714-1.706-11.032 0 0 2.131-5.29-1.855-10.196-2.03-2.494-5.745-4.875-12.55-3.877 0 0-8.423-14.183-21.46-4.876 0 0 .985 2.66-1.055 5.453l.05.03c1.98-1.17 11.405-10.02 21.625.55 0 0 16.144-1.503 11.863 13.521" mask="url(#b)"/>
            <path fill="#FFF" d="M19.556 23.716s4.148-5.076 8.845-.444c0 0 3.173-3.887 8.119-1.655 2.243 1.013 5.502 4.327 1.913 11.356a.43.43 0 0 1-.079 0s1.465-5.959-2.824-8.66c-1.728-1.091-4.899-.865-8.07 2.648 0 0-1.505-2.808-4.04-2.026 0 0 .316 4.12-2.218 8.301-.002.007-.076-.004-.075 0 0 0 1.479-6.428-1.57-9.52M4.026 25.096s5.302-4.337 9.71-2.35c2.81 1.27 3.546 4.769 3.007 10.22 0 0 .073.007.075 0 .404-.956 5.612-10.72-2.326-13.676-1.498-.562-3.597-.738-7.383.666l-3.51-10.18S9.168 2.163.004.412c0 0-.007.065-.005.065.895.503 6.35 3.995.239 8.17l3.787 16.45zM70.589 16.884c.8 0 1.506-.103 2.117-.31.611-.208 1.12-.5 1.525-.88.406-.377.71-.836.917-1.375a5.04 5.04 0 0 0 .307-1.804c0-.653-.1-1.238-.3-1.757-.2-.518-.5-.959-.9-1.321-.401-.363-.907-.64-1.518-.832-.61-.192-1.327-.288-2.148-.288h-3.296v8.567h3.296zm0-11.412c1.448 0 2.703.17 3.765.513 1.063.342 1.94.821 2.634 1.438a5.731 5.731 0 0 1 1.547 2.223c.34.866.509 1.822.509 2.87 0 1.067-.18 2.044-.54 2.93a6.137 6.137 0 0 1-1.601 2.286c-.708.637-1.589 1.135-2.641 1.493-1.053.357-2.277.536-3.673.536h-3.296v8.1H63.69V5.472h6.899zM90.332 18.144c0-.56-.08-1.08-.239-1.563a3.663 3.663 0 0 0-.7-1.26 3.204 3.204 0 0 0-1.148-.839c-.457-.202-.983-.303-1.578-.303-1.202 0-2.146.347-2.834 1.042-.688.694-1.124 1.669-1.309 2.923h7.808zm-7.9 2.052c.04.902.18 1.682.415 2.34.236.659.552 1.205.948 1.64.395.436.867.76 1.416.972.55.213 1.163.32 1.841.32.647 0 1.206-.076 1.679-.226.472-.15.882-.316 1.231-.498.35-.18.647-.347.893-.497.247-.15.473-.226.679-.226.266 0 .471.104.615.31l.94 1.23c-.39.466-.832.86-1.325 1.181a7.71 7.71 0 0 1-1.57.785 8.817 8.817 0 0 1-1.71.436c-.585.088-1.155.132-1.71.132-1.088 0-2.097-.184-3.026-.552a6.725 6.725 0 0 1-2.418-1.625c-.683-.715-1.216-1.601-1.601-2.659-.385-1.057-.577-2.275-.577-3.654 0-1.098.171-2.124.515-3.078a7.358 7.358 0 0 1 1.479-2.488 6.952 6.952 0 0 1 2.34-1.672c.92-.41 1.96-.613 3.12-.613.964 0 1.857.158 2.679.474.821.316 1.53.78 2.125 1.391.595.612 1.06 1.36 1.394 2.247.333.886.5 1.894.5 3.024 0 .519-.057.866-.17 1.042-.112.177-.318.264-.615.264H82.43zM98.617 4.85v13.34h.708c.226 0 .411-.03.555-.093.144-.062.292-.192.447-.388l4.404-5.085c.154-.207.323-.363.509-.466.185-.104.42-.156.708-.156h3.003l-5.298 6.033a4.046 4.046 0 0 1-1.016.964c.205.145.385.309.539.49.154.181.303.386.446.614l5.652 7.759h-2.956a1.62 1.62 0 0 1-.686-.132c-.19-.088-.357-.252-.5-.49l-4.544-6.22c-.154-.238-.307-.39-.461-.458-.155-.068-.386-.101-.693-.101h-.817v7.4h-3.31V4.85h3.31z" mask="url(#b)"/>
            <path fill="#FFF" d="M118.699 20.927c-1.181.042-2.177.138-2.988.288-.81.15-1.468.342-1.971.575-.503.233-.865.51-1.086.832-.22.321-.331.674-.331 1.057 0 .373.06.692.177.957.118.264.282.481.493.653.21.17.457.295.739.373.282.077.593.116.932.116.862 0 1.604-.163 2.225-.49.621-.326 1.224-.8 1.81-1.422v-2.939zm-8.778-6.717c1.776-1.669 3.89-2.503 6.345-2.503.903 0 1.707.147 2.41.443a4.834 4.834 0 0 1 1.77 1.251c.478.54.843 1.18 1.094 1.92.252.742.378 1.563.378 2.465v10.076h-1.48c-.318 0-.559-.05-.723-.148-.164-.098-.303-.298-.415-.599l-.324-1.29c-.4.363-.796.686-1.186.971-.39.286-.793.527-1.209.723a5.906 5.906 0 0 1-1.34.444 7.856 7.856 0 0 1-1.578.148c-.637 0-1.23-.089-1.779-.265a3.896 3.896 0 0 1-1.424-.8c-.4-.358-.717-.801-.947-1.33-.232-.528-.347-1.15-.347-1.866 0-.611.161-1.207.485-1.788.323-.58.857-1.101 1.602-1.562.744-.462 1.725-.842 2.941-1.143 1.217-.3 2.719-.472 4.505-.514v-1.057c0-1.14-.241-1.99-.724-2.55-.482-.56-1.191-.84-2.125-.84-.637 0-1.17.081-1.602.242-.431.16-.806.334-1.124.52-.319.187-.601.36-.847.521a1.409 1.409 0 0 1-.785.241.935.935 0 0 1-.578-.178c-.16-.12-.29-.267-.393-.443l-.6-1.09zM131.496 25.483c1.417 0 2.472-.48 3.165-1.438.693-.96 1.04-2.33 1.04-4.113 0-1.783-.347-3.16-1.04-4.128-.693-.97-1.748-1.454-3.165-1.454-1.437 0-2.505.485-3.203 1.454s-1.048 2.345-1.048 4.128.35 3.154 1.048 4.113c.698.959 1.766 1.438 3.203 1.438m0-13.73c1.16 0 2.21.192 3.15.576.939.383 1.74.928 2.402 1.632.662.705 1.173 1.56 1.533 2.566.359 1.005.538 2.135.538 3.39 0 1.254-.18 2.384-.538 3.39-.36 1.005-.871 1.863-1.533 2.572a6.695 6.695 0 0 1-2.403 1.64c-.939.384-1.989.576-3.149.576-1.17 0-2.225-.192-3.165-.576a6.77 6.77 0 0 1-2.41-1.64c-.667-.71-1.18-1.567-1.54-2.573-.36-1.005-.539-2.135-.539-3.39 0-1.254.18-2.384.54-3.389.358-1.005.872-1.86 1.54-2.566a6.835 6.835 0 0 1 2.41-1.632c.939-.384 1.994-.575 3.164-.575M162.759 8.504h-6.915v19.358h-3.588V8.504h-6.93V5.472h17.433zM168.38 8.41v7.168h8.67v2.939h-8.67v9.345h-3.62V5.472h13.83V8.41zM181.1 27.862h3.62V5.472h-3.62z" mask="url(#b)"/>
        </g>
    </g>
</svg>
